<svg xmlns="http://www.w3.org/2000/svg" xmlns:xlink="http://www.w3.org/1999/xlink" width="200" zoomAndPan="magnify" viewBox="0 0 150 149.999998" height="200" preserveAspectRatio="xMidYMid meet" version="1.0"><defs><g/><clipPath id="c6d5ddebea"><path d="M 11.453125 8.363281 L 144.726562 8.363281 L 144.726562 141.636719 L 11.453125 141.636719 Z M 11.453125 8.363281 " clip-rule="nonzero"/></clipPath><clipPath id="45a35940f5"><path d="M 78.089844 8.363281 C 41.285156 8.363281 11.453125 38.199219 11.453125 75 C 11.453125 111.800781 41.285156 141.636719 78.089844 141.636719 C 114.890625 141.636719 144.726562 111.800781 144.726562 75 C 144.726562 38.199219 114.890625 8.363281 78.089844 8.363281 Z M 78.089844 8.363281 " clip-rule="nonzero"/></clipPath><clipPath id="6636c3172d"><path d="M 0.453125 0.363281 L 133.726562 0.363281 L 133.726562 133.636719 L 0.453125 133.636719 Z M 0.453125 0.363281 " clip-rule="nonzero"/></clipPath><clipPath id="0b85edb870"><path d="M 67.089844 0.363281 C 30.285156 0.363281 0.453125 30.199219 0.453125 67 C 0.453125 103.800781 30.285156 133.636719 67.089844 133.636719 C 103.890625 133.636719 133.726562 103.800781 133.726562 67 C 133.726562 30.199219 103.890625 0.363281 67.089844 0.363281 Z M 67.089844 0.363281 " clip-rule="nonzero"/></clipPath><clipPath id="f02a25fea1"><rect x="0" width="134" y="0" height="134"/></clipPath><clipPath id="24a71e2773"><path d="M 11.453125 8.363281 L 144.953125 8.363281 L 144.953125 141.863281 L 11.453125 141.863281 Z M 11.453125 8.363281 " clip-rule="nonzero"/></clipPath><clipPath id="0a640c15a4"><path d="M 52 13 L 67 13 L 67 37.679688 L 52 37.679688 Z M 52 13 " clip-rule="nonzero"/></clipPath><clipPath id="cce7ec85b2"><rect x="0" width="127" y="0" height="38"/></clipPath></defs><g clip-path="url(#c6d5ddebea)"><g clip-path="url(#45a35940f5)"><g transform="matrix(1, 0, 0, 1, 11, 8)"><g clip-path="url(#f02a25fea1)"><g clip-path="url(#6636c3172d)"><g clip-path="url(#0b85edb870)"><path fill="#efeddf" d="M 0.453125 0.363281 L 133.726562 0.363281 L 133.726562 133.636719 L 0.453125 133.636719 Z M 0.453125 0.363281 " fill-opacity="1" fill-rule="nonzero"/></g></g></g></g></g></g><g clip-path="url(#24a71e2773)"><path fill="#000000" d="M 78.203125 141.863281 C 41.40625 141.863281 11.453125 111.90625 11.453125 75.113281 C 11.453125 38.316406 41.40625 8.363281 78.203125 8.363281 C 114.996094 8.363281 144.953125 38.316406 144.953125 75.113281 C 144.953125 111.90625 114.996094 141.863281 78.203125 141.863281 Z M 78.203125 9.347656 C 41.933594 9.347656 12.4375 38.84375 12.4375 75.113281 C 12.4375 111.382812 41.933594 140.875 78.203125 140.875 C 114.472656 140.875 143.964844 111.382812 143.964844 75.113281 C 143.964844 38.84375 114.472656 9.347656 78.203125 9.347656 Z M 78.203125 9.347656 " fill-opacity="1" fill-rule="nonzero"/></g><g transform="matrix(1, 0, 0, 1, 15, 54)"><g clip-path="url(#cce7ec85b2)"><g fill="#000000" fill-opacity="1"><g transform="translate(0.965403, 30.310424)"><g><path d="M 11.25 -11.65625 C 11.207031 -12.632812 10.859375 -13.335938 10.203125 -13.765625 C 9.546875 -14.191406 8.601562 -14.40625 7.375 -14.40625 C 6.488281 -14.40625 5.726562 -14.207031 5.09375 -13.8125 C 4.457031 -13.414062 4.140625 -12.84375 4.140625 -12.09375 C 4.140625 -11.507812 4.328125 -11.078125 4.703125 -10.796875 C 5.078125 -10.515625 5.890625 -10.21875 7.140625 -9.90625 L 9.84375 -9.21875 C 11.488281 -8.800781 12.660156 -8.269531 13.359375 -7.625 C 14.066406 -6.988281 14.421875 -6.09375 14.421875 -4.9375 C 14.421875 -3.332031 13.832031 -2.03125 12.65625 -1.03125 C 11.488281 -0.03125 9.925781 0.46875 7.96875 0.46875 C 5.6875 0.46875 3.957031 -0.00390625 2.78125 -0.953125 C 1.613281 -1.898438 1.019531 -3.328125 1 -5.234375 L 3.65625 -5.234375 C 3.695312 -4.109375 4.066406 -3.269531 4.765625 -2.71875 C 5.472656 -2.175781 6.53125 -1.90625 7.9375 -1.90625 C 9.09375 -1.90625 10.003906 -2.128906 10.671875 -2.578125 C 11.347656 -3.035156 11.6875 -3.671875 11.6875 -4.484375 C 11.6875 -5.066406 11.46875 -5.53125 11.03125 -5.875 C 10.59375 -6.21875 9.734375 -6.535156 8.453125 -6.828125 L 5.265625 -7.609375 C 3.972656 -7.929688 3.019531 -8.414062 2.40625 -9.0625 C 1.789062 -9.707031 1.484375 -10.539062 1.484375 -11.5625 C 1.484375 -13.164062 2.054688 -14.429688 3.203125 -15.359375 C 4.359375 -16.296875 5.859375 -16.765625 7.703125 -16.765625 C 9.671875 -16.765625 11.179688 -16.285156 12.234375 -15.328125 C 13.285156 -14.367188 13.835938 -13.144531 13.890625 -11.65625 Z M 11.25 -11.65625 "/></g></g></g><g fill="#000000" fill-opacity="1"><g transform="translate(16.548768, 30.310424)"><g><path d="M 11.96875 -8.328125 C 11.757812 -8.109375 11.359375 -7.929688 10.765625 -7.796875 C 10.171875 -7.671875 9.0625 -7.503906 7.4375 -7.296875 C 6.238281 -7.148438 5.359375 -6.851562 4.796875 -6.40625 C 4.234375 -5.957031 3.953125 -5.367188 3.953125 -4.640625 C 3.953125 -3.742188 4.191406 -3.046875 4.671875 -2.546875 C 5.148438 -2.054688 5.910156 -1.8125 6.953125 -1.8125 C 8.265625 -1.8125 9.425781 -2.179688 10.4375 -2.921875 C 11.457031 -3.671875 11.96875 -4.578125 11.96875 -5.640625 Z M 1.9375 -11.34375 C 2 -13.175781 2.59375 -14.535156 3.71875 -15.421875 C 4.851562 -16.316406 6.5 -16.765625 8.65625 -16.765625 C 10.382812 -16.765625 11.832031 -16.375 13 -15.59375 C 14.164062 -14.8125 14.75 -13.6875 14.75 -12.21875 L 14.75 -2.828125 C 14.75 -2.191406 15.035156 -1.875 15.609375 -1.875 C 15.847656 -1.875 16.148438 -1.914062 16.515625 -2 L 16.515625 0 C 16.015625 0.195312 15.5 0.296875 14.96875 0.296875 C 14.03125 0.296875 13.332031 0.0976562 12.875 -0.296875 C 12.414062 -0.691406 12.175781 -1.316406 12.15625 -2.171875 C 10.59375 -0.410156 8.628906 0.46875 6.265625 0.46875 C 4.722656 0.46875 3.484375 0.0351562 2.546875 -0.828125 C 1.617188 -1.703125 1.15625 -2.84375 1.15625 -4.25 C 1.15625 -5.675781 1.5625 -6.832031 2.375 -7.71875 C 3.1875 -8.601562 4.367188 -9.132812 5.921875 -9.3125 L 10.765625 -9.90625 C 11.628906 -10.039062 12.0625 -10.6875 12.0625 -11.84375 C 12.0625 -12.695312 11.742188 -13.347656 11.109375 -13.796875 C 10.484375 -14.253906 9.523438 -14.484375 8.234375 -14.484375 C 7.085938 -14.484375 6.207031 -14.226562 5.59375 -13.71875 C 4.976562 -13.21875 4.609375 -12.425781 4.484375 -11.34375 Z M 1.9375 -11.34375 "/></g></g></g><g fill="#000000" fill-opacity="1"><g transform="translate(33.669164, 30.310424)"><g><path d="M 15.34375 0 L 12.59375 0 L 12.59375 -10.03125 C 12.59375 -11.570312 12.320312 -12.671875 11.78125 -13.328125 C 11.238281 -13.984375 10.347656 -14.3125 9.109375 -14.3125 C 7.878906 -14.3125 6.851562 -13.84375 6.03125 -12.90625 C 5.207031 -11.96875 4.796875 -10.628906 4.796875 -8.890625 L 4.796875 0 L 2.0625 0 L 2.0625 -16.296875 L 4.640625 -16.296875 L 4.640625 -14 L 4.703125 -14 C 5.992188 -15.84375 7.640625 -16.765625 9.640625 -16.765625 C 11.484375 -16.765625 12.894531 -16.273438 13.875 -15.296875 C 14.851562 -14.316406 15.34375 -12.914062 15.34375 -11.09375 Z M 15.34375 0 "/></g></g></g><g clip-path="url(#0a640c15a4)"><g fill="#000000" fill-opacity="1"><g transform="translate(50.86565, 30.310424)"><g><path d="M 4.046875 -8.203125 C 4.046875 -6.203125 4.441406 -4.648438 5.234375 -3.546875 C 6.023438 -2.453125 7.097656 -1.90625 8.453125 -1.90625 C 9.753906 -1.90625 10.820312 -2.378906 11.65625 -3.328125 C 12.488281 -4.285156 12.90625 -5.632812 12.90625 -7.375 C 12.90625 -9.675781 12.539062 -11.40625 11.8125 -12.5625 C 11.09375 -13.726562 9.992188 -14.3125 8.515625 -14.3125 C 7.015625 -14.3125 5.894531 -13.816406 5.15625 -12.828125 C 4.414062 -11.835938 4.046875 -10.296875 4.046875 -8.203125 Z M 15.53125 -0.921875 C 15.53125 1.691406 14.898438 3.640625 13.640625 4.921875 C 12.378906 6.210938 10.476562 6.859375 7.9375 6.859375 C 6.113281 6.859375 4.660156 6.4375 3.578125 5.59375 C 2.503906 4.757812 1.882812 3.5625 1.71875 2 L 4.453125 2 C 4.597656 2.789062 4.96875 3.414062 5.5625 3.875 C 6.15625 4.34375 7.015625 4.578125 8.140625 4.578125 C 9.671875 4.578125 10.828125 4.164062 11.609375 3.34375 C 12.390625 2.519531 12.78125 1.1875 12.78125 -0.65625 L 12.78125 -1.8125 L 12.71875 -1.8125 C 11.695312 -0.289062 10.253906 0.46875 8.390625 0.46875 C 6.066406 0.46875 4.289062 -0.382812 3.0625 -2.09375 C 1.832031 -3.8125 1.21875 -5.988281 1.21875 -8.625 C 1.21875 -11.039062 1.835938 -13 3.078125 -14.5 C 4.316406 -16.007812 5.957031 -16.765625 8 -16.765625 C 10.0625 -16.765625 11.6875 -15.84375 12.875 -14 L 12.9375 -14 L 12.9375 -16.296875 L 15.53125 -16.296875 Z M 15.53125 -0.921875 "/></g></g></g></g><g fill="#000000" fill-opacity="1"><g transform="translate(68.290409, 30.310424)"><g><path d="M 1.90625 -16.296875 L 4.640625 -16.296875 L 4.640625 -5.484375 C 4.640625 -4.285156 4.910156 -3.390625 5.453125 -2.796875 C 5.992188 -2.203125 6.773438 -1.90625 7.796875 -1.90625 C 9.203125 -1.90625 10.300781 -2.40625 11.09375 -3.40625 C 11.882812 -4.40625 12.28125 -5.710938 12.28125 -7.328125 L 12.28125 -16.296875 L 15.015625 -16.296875 L 15.015625 0 L 12.4375 0 L 12.4375 -2.375 L 12.375 -2.4375 C 11.34375 -0.5 9.617188 0.46875 7.203125 0.46875 C 5.640625 0.46875 4.363281 0.046875 3.375 -0.796875 C 2.394531 -1.648438 1.90625 -2.910156 1.90625 -4.578125 Z M 1.90625 -16.296875 "/></g></g></g><g fill="#000000" fill-opacity="1"><g transform="translate(85.36515, 30.310424)"><g><path d="M 2.0625 -19.265625 L 2.0625 -22.375 L 4.796875 -22.375 L 4.796875 -19.265625 Z M 4.796875 0 L 2.0625 0 L 2.0625 -16.296875 L 4.796875 -16.296875 Z M 4.796875 0 "/></g></g></g><g fill="#000000" fill-opacity="1"><g transform="translate(92.228522, 30.310424)"><g><path d="M 15.34375 0 L 12.59375 0 L 12.59375 -10.03125 C 12.59375 -11.570312 12.320312 -12.671875 11.78125 -13.328125 C 11.238281 -13.984375 10.347656 -14.3125 9.109375 -14.3125 C 7.878906 -14.3125 6.851562 -13.84375 6.03125 -12.90625 C 5.207031 -11.96875 4.796875 -10.628906 4.796875 -8.890625 L 4.796875 0 L 2.0625 0 L 2.0625 -16.296875 L 4.640625 -16.296875 L 4.640625 -14 L 4.703125 -14 C 5.992188 -15.84375 7.640625 -16.765625 9.640625 -16.765625 C 11.484375 -16.765625 12.894531 -16.273438 13.875 -15.296875 C 14.851562 -14.316406 15.34375 -12.914062 15.34375 -11.09375 Z M 15.34375 0 "/></g></g></g><g fill="#000000" fill-opacity="1"><g transform="translate(109.425018, 30.310424)"><g><path d="M 13.234375 -9.453125 C 13.097656 -11.210938 12.632812 -12.460938 11.84375 -13.203125 C 11.050781 -13.941406 10 -14.3125 8.6875 -14.3125 C 7.363281 -14.3125 6.289062 -13.84375 5.46875 -12.90625 C 4.65625 -11.96875 4.222656 -10.816406 4.171875 -9.453125 Z M 15.859375 -5.109375 C 15.554688 -3.429688 14.726562 -2.035156 13.375 -0.921875 C 12.1875 0.00390625 10.625 0.476562 8.6875 0.5 C 6.40625 0.476562 4.59375 -0.265625 3.25 -1.734375 C 1.914062 -3.210938 1.25 -5.203125 1.25 -7.703125 C 1.25 -10.566406 1.9375 -12.789062 3.3125 -14.375 C 4.695312 -15.96875 6.617188 -16.765625 9.078125 -16.765625 C 11.273438 -16.765625 12.992188 -15.941406 14.234375 -14.296875 C 15.472656 -12.660156 16.09375 -10.316406 16.09375 -7.265625 L 4.171875 -7.265625 C 4.171875 -5.554688 4.566406 -4.234375 5.359375 -3.296875 C 6.148438 -2.367188 7.335938 -1.90625 8.921875 -1.90625 C 10.035156 -1.90625 10.992188 -2.238281 11.796875 -2.90625 C 12.597656 -3.582031 13.039062 -4.316406 13.125 -5.109375 Z M 15.859375 -5.109375 "/></g></g></g><g fill="#000000" fill-opacity="1"><g transform="translate(0.221538, 29.566559)"><g><path d="M 11.140625 -11.652344 C 11.101562 -12.589844 10.769531 -13.261719 10.144531 -13.667969 C 9.507812 -14.082031 8.585938 -14.289062 7.382812 -14.289062 C 6.507812 -14.289062 5.765625 -14.097656 5.148438 -13.710938 C 4.546875 -13.335938 4.246094 -12.800781 4.246094 -12.097656 C 4.246094 -11.546875 4.417969 -11.140625 4.765625 -10.882812 C 5.128906 -10.613281 5.929688 -10.324219 7.164062 -10.011719 L 9.871094 -9.328125 C 11.535156 -8.90625 12.722656 -8.367188 13.441406 -7.710938 C 14.171875 -7.046875 14.535156 -6.117188 14.535156 -4.929688 C 14.535156 -3.292969 13.9375 -1.964844 12.738281 -0.945312 C 11.546875 0.0703125 9.960938 0.578125 7.972656 0.578125 C 5.667969 0.578125 3.917969 0.0976562 2.726562 -0.867188 C 1.527344 -1.835938 0.917969 -3.292969 0.898438 -5.234375 L 0.894531 -5.34375 L 3.753906 -5.34375 L 3.757812 -5.238281 C 3.800781 -4.144531 4.15625 -3.335938 4.835938 -2.808594 C 5.523438 -2.277344 6.558594 -2.007812 7.945312 -2.007812 C 9.070312 -2.007812 9.960938 -2.230469 10.617188 -2.675781 C 11.257812 -3.109375 11.582031 -3.714844 11.582031 -4.488281 C 11.582031 -5.035156 11.375 -5.46875 10.96875 -5.789062 C 10.542969 -6.125 9.695312 -6.4375 8.421875 -6.730469 L 5.242188 -7.503906 C 3.929688 -7.835938 2.960938 -8.328125 2.335938 -8.988281 C 1.699219 -9.652344 1.382812 -10.511719 1.382812 -11.566406 C 1.382812 -13.203125 1.96875 -14.5 3.144531 -15.453125 C 4.308594 -16.402344 5.828125 -16.878906 7.699219 -16.878906 C 9.695312 -16.878906 11.230469 -16.390625 12.300781 -15.410156 C 13.371094 -14.433594 13.941406 -13.183594 14 -11.660156 L 14.007812 -11.550781 L 11.144531 -11.550781 Z M 11.355469 -11.660156 L 11.246094 -11.65625 L 11.246094 -11.765625 L 13.894531 -11.765625 L 13.894531 -11.65625 L 13.789062 -11.652344 C 13.726562 -13.113281 13.183594 -14.316406 12.15625 -15.253906 C 11.125 -16.195312 9.640625 -16.664062 7.699219 -16.664062 C 5.878906 -16.664062 4.40625 -16.207031 3.277344 -15.289062 C 2.160156 -14.375 1.597656 -13.136719 1.597656 -11.566406 C 1.597656 -10.570312 1.894531 -9.761719 2.488281 -9.136719 C 3.089844 -8.507812 4.023438 -8.03125 5.292969 -7.714844 L 8.46875 -6.9375 C 9.773438 -6.640625 10.652344 -6.3125 11.101562 -5.957031 C 11.5625 -5.59375 11.796875 -5.101562 11.796875 -4.488281 C 11.796875 -3.640625 11.441406 -2.976562 10.734375 -2.5 C 10.042969 -2.03125 9.113281 -1.796875 7.945312 -1.796875 C 6.507812 -1.796875 5.429688 -2.078125 4.707031 -2.640625 C 3.972656 -3.207031 3.585938 -4.070312 3.546875 -5.230469 L 3.652344 -5.234375 L 3.652344 -5.128906 L 1.003906 -5.128906 L 1.003906 -5.234375 L 1.113281 -5.238281 C 1.132812 -3.363281 1.714844 -1.960938 2.859375 -1.035156 C 4.011719 -0.101562 5.71875 0.363281 7.972656 0.363281 C 9.90625 0.363281 11.449219 -0.125 12.601562 -1.109375 C 13.746094 -2.085938 14.320312 -3.359375 14.320312 -4.929688 C 14.320312 -6.054688 13.980469 -6.929688 13.296875 -7.554688 C 12.605469 -8.183594 11.445312 -8.707031 9.820312 -9.117188 L 7.113281 -9.804688 C 5.851562 -10.121094 5.027344 -10.425781 4.636719 -10.710938 C 4.234375 -11.011719 4.03125 -11.472656 4.03125 -12.097656 C 4.03125 -12.878906 4.367188 -13.476562 5.035156 -13.894531 C 5.683594 -14.300781 6.46875 -14.503906 7.382812 -14.503906 C 8.628906 -14.503906 9.589844 -14.285156 10.261719 -13.847656 C 10.949219 -13.402344 11.3125 -12.671875 11.355469 -11.660156 Z M 11.355469 -11.660156 "/></g></g></g><g fill="#000000" fill-opacity="1"><g transform="translate(15.804903, 29.566559)"><g><path d="M 12.039062 -8.25 C 11.820312 -8.023438 11.40625 -7.839844 10.789062 -7.703125 C 10.195312 -7.570312 9.082031 -7.398438 7.457031 -7.183594 C 6.277344 -7.042969 5.414062 -6.757812 4.867188 -6.324219 C 4.332031 -5.898438 4.0625 -5.335938 4.0625 -4.640625 C 4.0625 -3.777344 4.292969 -3.105469 4.75 -2.632812 C 5.207031 -2.15625 5.941406 -1.917969 6.953125 -1.917969 C 8.242188 -1.917969 9.378906 -2.285156 10.375 -3.015625 C 11.363281 -3.738281 11.855469 -4.617188 11.855469 -5.644531 L 11.855469 -8.324219 L 11.960938 -8.324219 Z M 12.070312 -8.59375 L 12.070312 -5.644531 C 12.070312 -4.542969 11.546875 -3.609375 10.503906 -2.84375 C 9.46875 -2.082031 8.289062 -1.703125 6.953125 -1.703125 C 5.878906 -1.703125 5.09375 -1.964844 4.59375 -2.484375 C 4.097656 -3 3.851562 -3.71875 3.851562 -4.640625 C 3.851562 -5.40625 4.144531 -6.023438 4.734375 -6.492188 C 5.3125 -6.949219 6.210938 -7.25 7.429688 -7.394531 C 9.046875 -7.609375 10.152344 -7.78125 10.742188 -7.910156 C 11.316406 -8.039062 11.695312 -8.203125 11.882812 -8.398438 Z M 1.824219 -11.339844 C 1.886719 -13.210938 2.496094 -14.601562 3.65625 -15.515625 C 4.804688 -16.425781 6.472656 -16.878906 8.660156 -16.878906 C 10.40625 -16.878906 11.871094 -16.480469 13.054688 -15.6875 C 14.253906 -14.886719 14.855469 -13.730469 14.855469 -12.21875 L 14.855469 -2.832031 C 14.855469 -2.539062 14.917969 -2.324219 15.042969 -2.183594 C 15.167969 -2.046875 15.355469 -1.980469 15.613281 -1.980469 C 15.839844 -1.980469 16.132812 -2.019531 16.488281 -2.097656 L 16.621094 -2.128906 L 16.621094 0.0703125 L 16.554688 0.0976562 C 16.042969 0.308594 15.511719 0.410156 14.960938 0.410156 C 14 0.410156 13.28125 0.203125 12.804688 -0.214844 C 12.324219 -0.636719 12.074219 -1.289062 12.050781 -2.171875 L 12.160156 -2.175781 L 12.238281 -2.105469 C 10.65625 -0.316406 8.667969 0.578125 6.269531 0.578125 C 4.699219 0.578125 3.4375 0.132812 2.484375 -0.757812 C 1.527344 -1.652344 1.050781 -2.816406 1.050781 -4.246094 C 1.050781 -5.703125 1.464844 -6.886719 2.296875 -7.789062 C 3.125 -8.691406 4.328125 -9.234375 5.90625 -9.421875 L 10.746094 -10.015625 L 10.757812 -9.90625 L 10.742188 -10.011719 C 11.554688 -10.136719 11.960938 -10.746094 11.960938 -11.839844 C 11.960938 -12.65625 11.660156 -13.28125 11.054688 -13.714844 C 10.4375 -14.160156 9.5 -14.382812 8.234375 -14.382812 C 7.113281 -14.382812 6.253906 -14.136719 5.660156 -13.644531 C 5.070312 -13.15625 4.714844 -12.382812 4.597656 -11.324219 L 4.585938 -11.230469 L 1.820312 -11.230469 Z M 2.039062 -11.335938 L 1.933594 -11.339844 L 1.933594 -11.445312 L 4.488281 -11.445312 L 4.488281 -11.339844 L 4.382812 -11.351562 C 4.507812 -12.464844 4.886719 -13.285156 5.523438 -13.808594 C 6.160156 -14.332031 7.0625 -14.59375 8.234375 -14.59375 C 9.542969 -14.59375 10.527344 -14.359375 11.179688 -13.890625 C 11.84375 -13.414062 12.175781 -12.730469 12.175781 -11.839844 C 12.175781 -10.621094 11.707031 -9.941406 10.777344 -9.800781 L 10.773438 -9.800781 L 5.933594 -9.207031 C 4.40625 -9.027344 3.246094 -8.507812 2.453125 -7.644531 C 1.660156 -6.78125 1.265625 -5.648438 1.265625 -4.246094 C 1.265625 -2.875 1.71875 -1.765625 2.628906 -0.914062 C 3.542969 -0.0625 4.757812 0.363281 6.269531 0.363281 C 8.601562 0.363281 10.539062 -0.507812 12.078125 -2.246094 L 12.261719 -2.453125 L 12.265625 -2.179688 C 12.285156 -1.359375 12.511719 -0.757812 12.945312 -0.378906 C 13.382812 0.00390625 14.054688 0.195312 14.960938 0.195312 C 15.484375 0.195312 15.988281 0.0976562 16.472656 -0.0976562 L 16.511719 0 L 16.40625 0 L 16.40625 -1.992188 L 16.511719 -1.992188 L 16.535156 -1.890625 C 16.164062 -1.804688 15.855469 -1.765625 15.613281 -1.765625 C 15.292969 -1.765625 15.050781 -1.855469 14.882812 -2.039062 C 14.722656 -2.21875 14.640625 -2.484375 14.640625 -2.832031 L 14.640625 -12.21875 C 14.640625 -13.652344 14.070312 -14.75 12.9375 -15.511719 C 11.789062 -16.277344 10.363281 -16.664062 8.660156 -16.664062 C 6.523438 -16.664062 4.898438 -16.226562 3.789062 -15.347656 C 2.683594 -14.476562 2.101562 -13.136719 2.039062 -11.335938 Z M 2.039062 -11.335938 "/></g></g></g><g fill="#000000" fill-opacity="1"><g transform="translate(32.925299, 29.566559)"><g><path d="M 15.339844 0.105469 L 12.480469 0.105469 L 12.480469 -10.027344 C 12.480469 -11.546875 12.21875 -12.621094 11.695312 -13.257812 C 11.179688 -13.882812 10.316406 -14.199219 9.101562 -14.199219 C 7.90625 -14.199219 6.90625 -13.742188 6.105469 -12.835938 C 5.304688 -11.921875 4.902344 -10.605469 4.902344 -8.886719 L 4.902344 0.105469 L 1.949219 0.105469 L 1.949219 -16.40625 L 4.75 -16.40625 L 4.75 -14 L 4.640625 -14 L 4.640625 -14.109375 L 4.703125 -14.109375 L 4.703125 -14 L 4.613281 -14.0625 C 5.925781 -15.941406 7.597656 -16.878906 9.632812 -16.878906 C 11.507812 -16.878906 12.949219 -16.378906 13.949219 -15.378906 C 14.949219 -14.378906 15.449219 -12.949219 15.449219 -11.09375 L 15.449219 0.105469 Z M 15.339844 -0.105469 L 15.339844 0 L 15.234375 0 L 15.234375 -11.09375 C 15.234375 -12.890625 14.753906 -14.269531 13.796875 -15.226562 C 12.839844 -16.183594 11.449219 -16.664062 9.632812 -16.664062 C 7.671875 -16.664062 6.058594 -15.753906 4.789062 -13.941406 L 4.757812 -13.894531 L 4.535156 -13.894531 L 4.535156 -16.300781 L 4.640625 -16.300781 L 4.640625 -16.191406 L 2.054688 -16.191406 L 2.054688 -16.300781 L 2.160156 -16.300781 L 2.160156 0 L 2.054688 0 L 2.054688 -0.105469 L 4.792969 -0.105469 L 4.792969 0 L 4.6875 0 L 4.6875 -8.886719 C 4.6875 -10.660156 5.105469 -12.023438 5.945312 -12.976562 C 6.789062 -13.933594 7.839844 -14.414062 9.101562 -14.414062 C 10.382812 -14.414062 11.304688 -14.074219 11.863281 -13.390625 C 12.414062 -12.71875 12.691406 -11.597656 12.691406 -10.027344 L 12.691406 0 L 12.585938 0 L 12.585938 -0.105469 Z M 15.339844 -0.105469 "/></g></g></g><g fill="#000000" fill-opacity="1"><g transform="translate(50.121785, 29.566559)"><g><path d="M 4.15625 -8.203125 C 4.15625 -6.226562 4.542969 -4.699219 5.320312 -3.617188 C 6.09375 -2.546875 7.132812 -2.007812 8.445312 -2.007812 C 9.722656 -2.007812 10.765625 -2.472656 11.578125 -3.402344 C 12.390625 -4.335938 12.796875 -5.664062 12.796875 -7.382812 C 12.796875 -9.652344 12.441406 -11.363281 11.726562 -12.507812 C 11.023438 -13.632812 9.949219 -14.199219 8.507812 -14.199219 C 7.050781 -14.199219 5.964844 -13.71875 5.246094 -12.757812 C 4.519531 -11.789062 4.15625 -10.269531 4.15625 -8.203125 Z M 3.941406 -8.203125 C 3.941406 -10.316406 4.320312 -11.878906 5.074219 -12.886719 C 5.835938 -13.902344 6.980469 -14.414062 8.507812 -14.414062 C 10.027344 -14.414062 11.160156 -13.816406 11.90625 -12.621094 C 12.644531 -11.441406 13.011719 -9.695312 13.011719 -7.382812 C 13.011719 -5.609375 12.585938 -4.238281 11.738281 -3.261719 C 10.886719 -2.285156 9.789062 -1.796875 8.445312 -1.796875 C 7.058594 -1.796875 5.960938 -2.359375 5.148438 -3.492188 C 4.34375 -4.609375 3.941406 -6.179688 3.941406 -8.203125 Z M 15.628906 -0.929688 C 15.628906 1.71875 14.992188 3.695312 13.710938 5.003906 C 12.433594 6.316406 10.511719 6.972656 7.945312 6.972656 C 6.09375 6.972656 4.617188 6.542969 3.519531 5.683594 C 2.414062 4.824219 1.777344 3.597656 1.613281 2.003906 L 1.601562 1.886719 L 4.546875 1.886719 L 4.566406 1.976562 C 4.703125 2.738281 5.054688 3.347656 5.628906 3.796875 C 6.203125 4.246094 7.039062 4.472656 8.140625 4.472656 C 9.644531 4.472656 10.773438 4.074219 11.535156 3.273438 C 12.296875 2.472656 12.675781 1.164062 12.675781 -0.65625 L 12.675781 -1.8125 L 12.785156 -1.8125 L 12.785156 -1.703125 L 12.722656 -1.703125 L 12.722656 -1.8125 L 12.8125 -1.75 C 11.765625 -0.199219 10.289062 0.578125 8.386719 0.578125 C 6.027344 0.578125 4.222656 -0.292969 2.972656 -2.039062 C 1.730469 -3.769531 1.109375 -5.96875 1.109375 -8.628906 C 1.109375 -11.070312 1.738281 -13.050781 2.992188 -14.578125 C 4.25 -16.113281 5.921875 -16.878906 8.003906 -16.878906 C 10.105469 -16.878906 11.757812 -15.9375 12.964844 -14.058594 L 12.875 -14 L 12.875 -14.109375 L 12.9375 -14.109375 L 12.9375 -14 L 12.828125 -14 L 12.828125 -16.40625 L 15.628906 -16.40625 Z M 15.414062 -0.929688 L 15.414062 -16.300781 L 15.523438 -16.300781 L 15.523438 -16.191406 L 12.9375 -16.191406 L 12.9375 -16.300781 L 13.042969 -16.300781 L 13.042969 -13.894531 L 12.816406 -13.894531 L 12.785156 -13.941406 C 11.617188 -15.757812 10.027344 -16.664062 8.003906 -16.664062 C 5.988281 -16.664062 4.375 -15.921875 3.15625 -14.441406 C 1.933594 -12.957031 1.324219 -11.019531 1.324219 -8.628906 C 1.324219 -6.015625 1.933594 -3.859375 3.144531 -2.164062 C 4.351562 -0.476562 6.097656 0.363281 8.386719 0.363281 C 10.214844 0.363281 11.628906 -0.378906 12.632812 -1.871094 L 12.664062 -1.917969 L 12.890625 -1.917969 L 12.890625 -0.65625 C 12.890625 1.21875 12.492188 2.578125 11.691406 3.421875 C 10.886719 4.265625 9.703125 4.6875 8.140625 4.6875 C 6.992188 4.6875 6.109375 4.445312 5.496094 3.964844 C 4.882812 3.480469 4.5 2.832031 4.355469 2.011719 L 4.460938 1.992188 L 4.460938 2.101562 L 1.71875 2.101562 L 1.71875 1.992188 L 1.828125 1.984375 C 1.984375 3.515625 2.59375 4.691406 3.648438 5.515625 C 4.710938 6.34375 6.140625 6.757812 7.945312 6.757812 C 10.449219 6.757812 12.320312 6.121094 13.558594 4.855469 C 14.796875 3.589844 15.414062 1.660156 15.414062 -0.929688 Z M 15.414062 -0.929688 "/></g></g></g><g fill="#000000" fill-opacity="1"><g transform="translate(67.546544, 29.566559)"><g><path d="M 1.902344 -16.40625 L 4.75 -16.40625 L 4.75 -5.480469 C 4.75 -4.308594 5.011719 -3.4375 5.535156 -2.863281 C 6.054688 -2.292969 6.808594 -2.007812 7.792969 -2.007812 C 9.167969 -2.007812 10.242188 -2.496094 11.011719 -3.46875 C 11.785156 -4.449219 12.175781 -5.730469 12.175781 -7.320312 L 12.175781 -16.40625 L 15.128906 -16.40625 L 15.128906 0.105469 L 12.328125 0.105469 L 12.328125 -2.375 L 12.433594 -2.375 L 12.359375 -2.296875 L 12.296875 -2.359375 L 12.371094 -2.433594 L 12.46875 -2.382812 C 11.414062 -0.410156 9.65625 0.578125 7.199219 0.578125 C 5.609375 0.578125 4.3125 0.144531 3.308594 -0.726562 C 2.300781 -1.597656 1.796875 -2.882812 1.796875 -4.582031 L 1.796875 -16.40625 Z M 1.902344 -16.191406 L 1.902344 -16.300781 L 2.007812 -16.300781 L 2.007812 -4.582031 C 2.007812 -2.949219 2.488281 -1.71875 3.449219 -0.886719 C 4.414062 -0.0546875 5.664062 0.363281 7.199219 0.363281 C 9.570312 0.363281 11.261719 -0.585938 12.277344 -2.484375 L 12.347656 -2.613281 L 12.539062 -2.417969 L 12.539062 0 L 12.433594 0 L 12.433594 -0.105469 L 15.019531 -0.105469 L 15.019531 0 L 14.914062 0 L 14.914062 -16.300781 L 15.019531 -16.300781 L 15.019531 -16.191406 L 12.28125 -16.191406 L 12.28125 -16.300781 L 12.386719 -16.300781 L 12.386719 -7.320312 C 12.386719 -5.683594 11.984375 -4.355469 11.179688 -3.335938 C 10.367188 -2.308594 9.238281 -1.796875 7.792969 -1.796875 C 6.746094 -1.796875 5.941406 -2.105469 5.375 -2.71875 C 4.816406 -3.335938 4.535156 -4.253906 4.535156 -5.480469 L 4.535156 -16.300781 L 4.640625 -16.300781 L 4.640625 -16.191406 Z M 1.902344 -16.191406 "/></g></g></g><g fill="#000000" fill-opacity="1"><g transform="translate(84.621285, 29.566559)"><g><path d="M 1.949219 -19.265625 L 1.949219 -22.480469 L 4.902344 -22.480469 L 4.902344 -19.160156 L 1.949219 -19.160156 Z M 2.160156 -19.265625 L 2.054688 -19.265625 L 2.054688 -19.375 L 4.792969 -19.375 L 4.792969 -19.265625 L 4.6875 -19.265625 L 4.6875 -22.371094 L 4.792969 -22.371094 L 4.792969 -22.265625 L 2.054688 -22.265625 L 2.054688 -22.371094 L 2.160156 -22.371094 Z M 4.792969 0.105469 L 1.949219 0.105469 L 1.949219 -16.40625 L 4.902344 -16.40625 L 4.902344 0.105469 Z M 4.792969 -0.105469 L 4.792969 0 L 4.6875 0 L 4.6875 -16.300781 L 4.792969 -16.300781 L 4.792969 -16.191406 L 2.054688 -16.191406 L 2.054688 -16.300781 L 2.160156 -16.300781 L 2.160156 0 L 2.054688 0 L 2.054688 -0.105469 Z M 4.792969 -0.105469 "/></g></g></g><g fill="#000000" fill-opacity="1"><g transform="translate(91.484657, 29.566559)"><g><path d="M 15.339844 0.105469 L 12.480469 0.105469 L 12.480469 -10.027344 C 12.480469 -11.546875 12.21875 -12.621094 11.695312 -13.257812 C 11.179688 -13.882812 10.316406 -14.199219 9.101562 -14.199219 C 7.90625 -14.199219 6.90625 -13.742188 6.105469 -12.835938 C 5.304688 -11.921875 4.902344 -10.605469 4.902344 -8.886719 L 4.902344 0.105469 L 1.949219 0.105469 L 1.949219 -16.40625 L 4.75 -16.40625 L 4.75 -14 L 4.640625 -14 L 4.640625 -14.109375 L 4.703125 -14.109375 L 4.703125 -14 L 4.613281 -14.0625 C 5.925781 -15.941406 7.597656 -16.878906 9.632812 -16.878906 C 11.507812 -16.878906 12.949219 -16.378906 13.949219 -15.378906 C 14.949219 -14.378906 15.449219 -12.949219 15.449219 -11.09375 L 15.449219 0.105469 Z M 15.339844 -0.105469 L 15.339844 0 L 15.234375 0 L 15.234375 -11.09375 C 15.234375 -12.890625 14.753906 -14.269531 13.796875 -15.226562 C 12.839844 -16.183594 11.449219 -16.664062 9.632812 -16.664062 C 7.671875 -16.664062 6.058594 -15.753906 4.789062 -13.941406 L 4.757812 -13.894531 L 4.535156 -13.894531 L 4.535156 -16.300781 L 4.640625 -16.300781 L 4.640625 -16.191406 L 2.054688 -16.191406 L 2.054688 -16.300781 L 2.160156 -16.300781 L 2.160156 0 L 2.054688 0 L 2.054688 -0.105469 L 4.792969 -0.105469 L 4.792969 0 L 4.6875 0 L 4.6875 -8.886719 C 4.6875 -10.660156 5.105469 -12.023438 5.945312 -12.976562 C 6.789062 -13.933594 7.839844 -14.414062 9.101562 -14.414062 C 10.382812 -14.414062 11.304688 -14.074219 11.863281 -13.390625 C 12.414062 -12.71875 12.691406 -11.597656 12.691406 -10.027344 L 12.691406 0 L 12.585938 0 L 12.585938 -0.105469 Z M 15.339844 -0.105469 "/></g></g></g><g fill="#000000" fill-opacity="1"><g transform="translate(108.681153, 29.566559)"><g><path d="M 13.132812 -9.441406 C 12.992188 -11.179688 12.539062 -12.40625 11.765625 -13.125 C 10.996094 -13.839844 9.96875 -14.199219 8.691406 -14.199219 C 7.394531 -14.199219 6.347656 -13.742188 5.550781 -12.835938 C 4.75 -11.921875 4.328125 -10.792969 4.277344 -9.445312 L 4.167969 -9.449219 L 4.167969 -9.558594 L 13.242188 -9.558594 L 13.242188 -9.449219 Z M 13.355469 -9.34375 L 4.058594 -9.34375 L 4.0625 -9.453125 C 4.113281 -10.851562 4.558594 -12.023438 5.390625 -12.976562 C 6.230469 -13.933594 7.328125 -14.414062 8.691406 -14.414062 C 10.027344 -14.414062 11.101562 -14.035156 11.914062 -13.28125 C 12.726562 -12.527344 13.203125 -11.253906 13.347656 -9.460938 Z M 15.964844 -5.09375 C 15.652344 -3.382812 14.816406 -1.96875 13.445312 -0.84375 C 12.238281 0.105469 10.652344 0.589844 8.691406 0.609375 C 6.375 0.589844 4.539062 -0.171875 3.175781 -1.671875 C 1.820312 -3.167969 1.140625 -5.175781 1.140625 -7.699219 C 1.140625 -10.589844 1.839844 -12.839844 3.238281 -14.453125 C 4.636719 -16.070312 6.582031 -16.878906 9.070312 -16.878906 C 11.308594 -16.878906 13.054688 -16.042969 14.316406 -14.371094 C 15.566406 -12.707031 16.191406 -10.335938 16.191406 -7.257812 L 16.191406 -7.152344 L 4.167969 -7.152344 L 4.167969 -7.257812 L 4.277344 -7.257812 C 4.277344 -5.582031 4.664062 -4.285156 5.4375 -3.371094 C 6.207031 -2.464844 7.367188 -2.007812 8.917969 -2.007812 C 10.007812 -2.007812 10.945312 -2.339844 11.726562 -2.996094 C 12.503906 -3.652344 12.933594 -4.363281 13.011719 -5.125 L 13.023438 -5.21875 L 15.984375 -5.21875 Z M 15.753906 -5.132812 L 15.859375 -5.113281 L 15.859375 -5.007812 L 13.117188 -5.007812 L 13.117188 -5.113281 L 13.226562 -5.101562 C 13.140625 -4.28125 12.6875 -3.527344 11.863281 -2.832031 C 11.042969 -2.140625 10.058594 -1.796875 8.917969 -1.796875 C 7.300781 -1.796875 6.089844 -2.273438 5.273438 -3.234375 C 4.46875 -4.1875 4.0625 -5.527344 4.0625 -7.257812 L 4.0625 -7.367188 L 16.085938 -7.367188 L 16.085938 -7.257812 L 15.980469 -7.257812 C 15.980469 -10.289062 15.367188 -12.617188 14.144531 -14.242188 C 12.925781 -15.855469 11.238281 -16.664062 9.070312 -16.664062 C 6.648438 -16.664062 4.757812 -15.878906 3.398438 -14.3125 C 2.035156 -12.738281 1.355469 -10.535156 1.355469 -7.699219 C 1.355469 -5.230469 2.015625 -3.269531 3.335938 -1.816406 C 4.65625 -0.363281 6.4375 0.375 8.6875 0.394531 C 10.601562 0.375 12.140625 -0.09375 13.308594 -1.011719 C 14.636719 -2.101562 15.453125 -3.472656 15.753906 -5.132812 Z M 15.753906 -5.132812 "/></g></g></g></g></g></svg>